<svg id="Capa_1" enable-background="new 0 0 512 512" height="512" viewBox="0 0 512 512" width="512" xmlns="http://www.w3.org/2000/svg"><g><path d="m335.616 504.5h-159.231c-23.885 0-43.247-19.362-43.247-43.247v-194.227c0-23.885 19.362-43.247 43.247-43.247h159.231c23.885 0 43.247 19.362 43.247 43.247v194.227c0 23.884-19.363 43.247-43.247 43.247z" fill="#f6f1f1"/><path d="m335.616 223.779h-21.438c23.885 0 43.247 19.362 43.247 43.247v194.227c0 23.885-19.362 43.247-43.247 43.247h21.438c23.885 0 43.247-19.362 43.247-43.247v-194.227c0-23.885-19.363-43.247-43.247-43.247z" fill="#efe7e4"/><path d="m201.51 191.431h108.98v32.348h-108.98z" fill="#eadfda"/><path d="m289.052 191.431h21.438v32.348h-21.438z" fill="#dad0cb"/><path d="m180.622 101.321h150.757v90.11h-150.757z" fill="#f6f1f1"/><path d="m309.941 101.321h21.438v90.11h-21.438z" fill="#efe7e4"/><path d="m232.376 13.255c-7.082 32.355-17.315 70.96-51.754 88.066h150.757c-34.439-17.106-44.672-55.712-51.754-88.066-.736-3.361-3.706-5.755-7.147-5.755h-32.956c-3.44 0-6.411 2.394-7.146 5.755z" fill="#eadfda"/><path d="m279.625 13.255c-.736-3.361-3.706-5.755-7.147-5.755h-21.438c3.44 0 6.411 2.394 7.146 5.755 7.082 32.355 17.315 70.96 51.754 88.067h21.438c-34.438-17.107-44.671-55.713-51.753-88.067z" fill="#dad0cb"/><path d="m336.057 460.425h-160.113c-2.17 0-3.929-1.759-3.929-3.929v-184.714c0-2.17 1.759-3.929 3.929-3.929h160.113c2.17 0 3.929 1.759 3.929 3.929v184.714c0 2.17-1.759 3.929-3.929 3.929z" fill="#ccf49f"/><path d="m336.057 267.853h-18.734c2.17 0 3.929 1.759 3.929 3.929v184.714c0 2.17-1.759 3.929-3.929 3.929h18.734c2.17 0 3.929-1.759 3.929-3.929v-184.714c0-2.17-1.759-3.929-3.929-3.929z" fill="#b3e59f"/><path d="m272.966 460.425h-97.022c-2.17 0-3.929-1.759-3.929-3.929v-38.918h62.45c8.3 0 15.978 4.4 20.173 11.562z" fill="#78c2a4"/><path d="m254.638 429.14c-4.195-7.161-11.873-11.562-20.173-11.562h-24.982c8.3 0 15.978 4.4 20.173 11.562l18.328 31.286h24.982z" fill="#66b394"/><g><path d="m209.687 173.969c4.143 0 7.5-3.357 7.5-7.5v-40.185c0-4.143-3.357-7.5-7.5-7.5s-7.5 3.357-7.5 7.5v40.185c0 4.142 3.357 7.5 7.5 7.5z"/><path d="m240.562 173.969c4.143 0 7.5-3.357 7.5-7.5v-40.185c0-4.143-3.357-7.5-7.5-7.5s-7.5 3.357-7.5 7.5v40.185c0 4.142 3.358 7.5 7.5 7.5z"/><path d="m271.438 173.969c4.143 0 7.5-3.357 7.5-7.5v-40.185c0-4.143-3.357-7.5-7.5-7.5s-7.5 3.357-7.5 7.5v40.185c0 4.142 3.358 7.5 7.5 7.5z"/><path d="m302.314 173.969c4.143 0 7.5-3.357 7.5-7.5v-40.185c0-4.143-3.357-7.5-7.5-7.5s-7.5 3.357-7.5 7.5v40.185c0 4.142 3.358 7.5 7.5 7.5z"/><path d="m256 284.463c-4.143 0-7.5 3.357-7.5 7.5v11.233h-11.233c-4.143 0-7.5 3.357-7.5 7.5s3.357 7.5 7.5 7.5h11.233v11.234c0 4.143 3.357 7.5 7.5 7.5s7.5-3.357 7.5-7.5v-11.234h11.234c4.143 0 7.5-3.357 7.5-7.5s-3.357-7.5-7.5-7.5h-11.234v-11.233c0-4.143-3.357-7.5-7.5-7.5z"/><path d="m282.785 351.069h-53.569c-4.143 0-7.5 3.357-7.5 7.5s3.357 7.5 7.5 7.5h53.569c4.143 0 7.5-3.357 7.5-7.5s-3.357-7.5-7.5-7.5z"/><path d="m282.785 380.573h-53.569c-4.143 0-7.5 3.357-7.5 7.5s3.357 7.5 7.5 7.5h53.569c4.143 0 7.5-3.357 7.5-7.5s-3.357-7.5-7.5-7.5z"/><path d="m339.985 303.696c4.143 0 7.5-3.357 7.5-7.5v-24.414c0-6.302-5.127-11.429-11.429-11.429h-160.112c-6.303 0-11.43 5.127-11.43 11.429v184.714c0 6.303 5.127 11.43 11.43 11.43h160.112c6.302 0 11.429-5.127 11.429-11.43v-131.3c0-4.143-3.357-7.5-7.5-7.5s-7.5 3.357-7.5 7.5v127.729h-55.221l-16.155-27.577c-5.519-9.419-15.728-15.271-26.645-15.271h-54.95v-134.723h152.971v20.843c0 4.142 3.358 7.499 7.5 7.499zm-105.52 121.382c5.614 0 10.864 3.009 13.701 7.853l11.714 19.995h-80.365v-27.848z"/><path d="m335.616 216.279h-17.626v-17.348h13.389c4.143 0 7.5-3.357 7.5-7.5v-89.995c.046-2.93-1.626-5.624-4.272-6.887-12.697-6.336-22.665-16.378-30.474-30.698-1.982-3.635-6.535-4.976-10.176-2.994-3.637 1.983-4.977 6.539-2.994 10.176 4.871 8.933 10.495 16.496 16.969 22.788h-103.866c21.119-20.505 29.479-50.858 35.606-78.821h32.657c1.822 8.314 4.084 18.101 7.061 27.777 1.218 3.959 5.416 6.183 9.374 4.963 3.959-1.218 6.182-5.414 4.964-9.373-2.833-9.207-5.015-18.672-6.775-26.715-1.478-6.752-7.565-11.652-14.474-11.652h-32.956c-6.909 0-12.996 4.9-14.473 11.651-7.352 33.585-17.089 67.647-47.659 82.9-2.653 1.268-4.314 3.964-4.269 6.885v89.995c0 4.143 3.357 7.5 7.5 7.5h13.388v17.348h-17.625c-27.982 0-50.747 22.765-50.747 50.747v194.227c0 27.982 22.765 50.747 50.747 50.747h35.178c4.143 0 7.5-3.357 7.5-7.5s-3.357-7.5-7.5-7.5h-35.178c-19.711 0-35.747-16.036-35.747-35.747v-194.227c0-19.711 16.036-35.747 35.747-35.747h159.231c19.711 0 35.746 16.036 35.746 35.747v194.227c0 19.711-16.035 35.747-35.746 35.747h-95.054c-4.143 0-7.5 3.357-7.5 7.5s3.357 7.5 7.5 7.5h95.054c27.981 0 50.746-22.765 50.746-50.747v-194.227c0-27.982-22.764-50.747-50.746-50.747zm-147.494-107.458h135.757v75.11h-135.757zm20.888 107.458v-17.348h93.98v17.348z"/></g></g></svg>